<svg width="1440" height="900" viewBox="0 0 1440 900" fill="none" xmlns="http://www.w3.org/2000/svg">
<rect width="1440" height="900" fill="#EDF2F8"/>
<ellipse cx="715.5" cy="423.099" rx="280.052" ry="191.92" transform="rotate(-34.1786 715.5 423.099)" fill="#D8E0EB"/>
<ellipse cx="715.5" cy="423.099" rx="280.052" ry="191.92" transform="rotate(-34.1786 715.5 423.099)" fill="url(#paint0_linear)"/>
<ellipse cx="185.91" cy="711.099" rx="82.6872" ry="72.1004" transform="rotate(-34.1786 185.91 711.099)" fill="#D8E0EB"/>
<ellipse cx="185.91" cy="711.099" rx="82.6872" ry="72.1004" transform="rotate(-34.1786 185.91 711.099)" fill="url(#paint1_linear)"/>
<ellipse cx="185.91" cy="711.099" rx="82.6872" ry="72.1004" transform="rotate(-34.1786 185.91 711.099)" fill="#D8E0EB"/>
<ellipse cx="185.91" cy="711.099" rx="82.6872" ry="72.1004" transform="rotate(-34.1786 185.91 711.099)" fill="url(#paint2_linear)"/>
<ellipse cx="185.91" cy="711.099" rx="82.6872" ry="72.1004" transform="rotate(-34.1786 185.91 711.099)" fill="#D8E0EB"/>
<ellipse cx="185.91" cy="711.099" rx="82.6872" ry="72.1004" transform="rotate(-34.1786 185.91 711.099)" fill="url(#paint3_linear)"/>
<ellipse cx="91.9102" cy="485.1" rx="19.8879" ry="16.8345" transform="rotate(-34.1786 91.9102 485.1)" fill="#D8E0EB"/>
<ellipse cx="91.9102" cy="485.1" rx="19.8879" ry="16.8345" transform="rotate(-34.1786 91.9102 485.1)" fill="url(#paint4_linear)"/>
<defs>
<linearGradient id="paint0_linear" x1="445.49" y1="426.44" x2="964.436" y2="429.656" gradientUnits="userSpaceOnUse">
<stop stop-color="white" stop-opacity="0"/>
<stop offset="1" stop-color="white"/>
</linearGradient>
<linearGradient id="paint1_linear" x1="106.188" y1="712.354" x2="259.413" y2="713.101" gradientUnits="userSpaceOnUse">
<stop stop-color="white" stop-opacity="0"/>
<stop offset="1" stop-color="white"/>
</linearGradient>
<linearGradient id="paint2_linear" x1="106.188" y1="712.354" x2="259.413" y2="713.101" gradientUnits="userSpaceOnUse">
<stop stop-color="white" stop-opacity="0"/>
<stop offset="1" stop-color="white"/>
</linearGradient>
<linearGradient id="paint3_linear" x1="106.188" y1="712.354" x2="259.413" y2="713.101" gradientUnits="userSpaceOnUse">
<stop stop-color="white" stop-opacity="0"/>
<stop offset="1" stop-color="white"/>
</linearGradient>
<linearGradient id="paint4_linear" x1="72.7355" y1="485.392" x2="109.589" y2="485.577" gradientUnits="userSpaceOnUse">
<stop stop-color="white" stop-opacity="0"/>
<stop offset="1" stop-color="white"/>
</linearGradient>
</defs>
</svg>
